<svg id="svg" version="1.1" xmlns="http://www.w3.org/2000/svg" xmlns:xlink="http://www.w3.org/1999/xlink" width="400" height="400" viewBox="0, 0, 400,400"><g id="svgg"><path id="path0" d="M189.500 58.543 C 154.453 62.058,127.752 73.765,103.437 96.278 C 68.302 128.809,52.119 177.054,60.373 224.667 C 73.682 301.447,147.391 353.023,224.667 339.627 C 305.785 325.566,357.241 245.665,337.296 164.737 C 322.071 102.962,265.903 59.019,201.500 58.496 C 195.633 58.448,190.233 58.470,189.500 58.543 M209.814 62.020 C 311.379 69.675,370.528 180.529,320.028 268.576 C 263.101 367.827,117.411 358.954,72.487 253.500 C 32.425 159.460,107.822 54.332,209.814 62.020 M198.211 111.718 C 190.944 113.108,184.557 121.050,185.063 128.068 C 185.206 130.043,187.667 130.575,187.667 128.631 C 187.667 120.443,193.686 114.165,201.500 114.202 C 213.348 114.260,219.440 127.273,212.009 136.655 C 209.869 139.358,211.787 140.924,214.101 138.362 C 224.291 127.083,213.396 108.814,198.211 111.718 M218.917 129.190 C 218.779 129.330,218.667 129.842,218.667 130.328 C 218.667 133.896,214.501 140.667,212.305 140.667 C 209.922 140.667,209.377 138.471,211.218 136.282 C 213.482 133.589,215.089 129.053,213.617 129.510 C 201.904 133.147,199.673 149.201,209.937 156.000 C 213.064 158.071,218.126 158.899,221.881 157.953 L 223.391 157.573 225.946 160.087 L 228.500 162.601 230.576 162.738 C 233.105 162.905,232.980 162.782,233.266 165.377 L 233.500 167.500 235.718 167.598 L 237.935 167.696 238.165 169.979 C 238.419 172.515,238.619 172.667,241.708 172.667 L 243.000 172.667 243.000 174.639 C 243.000 177.809,242.769 177.667,247.906 177.667 L 252.408 177.667 252.175 173.250 L 251.943 168.833 241.920 158.780 L 231.897 148.726 232.323 147.204 C 233.628 142.541,231.871 136.533,228.180 133.042 C 225.476 130.485,219.917 128.173,218.917 129.190 M164.670 133.836 L 167.156 136.340 157.497 146.003 L 147.837 155.667 152.584 160.415 L 157.331 165.162 163.333 159.167 L 169.334 153.173 171.834 155.673 L 174.334 158.173 168.334 164.166 L 162.334 170.159 167.080 174.914 L 171.827 179.669 181.577 169.923 L 191.327 160.177 193.830 162.664 L 196.333 165.150 196.333 155.098 L 196.333 145.047 193.784 143.820 C 187.891 140.986,185.349 136.323,189.002 135.049 C 190.305 134.595,190.807 134.797,192.812 136.582 C 193.718 137.388,194.880 138.266,195.396 138.532 L 196.333 139.017 196.333 135.175 L 196.333 131.333 179.258 131.333 L 162.183 131.333 164.670 133.836 M188.889 136.556 C 187.142 138.302,193.649 143.177,198.906 144.061 C 201.647 144.522,201.533 144.564,201.832 142.963 L 202.057 141.759 200.080 141.536 C 197.629 141.258,194.044 139.572,191.949 137.711 C 190.508 136.431,189.423 136.021,188.889 136.556 M169.763 230.370 C 169.500 230.633,169.434 233.957,169.534 241.787 L 169.675 252.833 167.175 243.333 C 165.800 238.108,164.479 233.158,164.238 232.333 L 163.802 230.833 160.395 230.738 C 157.461 230.656,156.958 230.721,156.774 231.202 C 156.455 232.032,157.339 267.637,157.702 268.592 C 157.996 269.365,158.131 269.404,160.052 269.265 C 162.702 269.073,163.114 268.571,162.866 265.833 C 162.767 264.733,162.606 259.108,162.509 253.333 L 162.334 242.833 164.333 250.167 C 165.432 254.200,166.556 258.475,166.830 259.667 C 167.438 262.312,168.860 267.618,169.175 268.417 C 169.470 269.166,174.349 269.284,174.953 268.557 C 175.205 268.254,175.256 266.651,175.115 263.474 C 175.002 260.921,174.893 252.594,174.872 244.968 C 174.841 233.749,174.746 230.998,174.376 230.552 C 173.839 229.904,170.366 229.768,169.763 230.370 M190.432 230.667 C 187.091 230.870,186.939 231.007,187.066 233.701 L 187.167 235.833 189.917 235.930 L 192.667 236.027 192.692 249.597 C 192.706 257.060,192.697 264.146,192.672 265.342 C 192.647 266.539,192.789 267.946,192.988 268.468 L 193.349 269.418 195.756 269.181 C 198.673 268.893,198.625 268.963,198.495 265.201 C 198.412 262.814,198.288 241.991,198.326 236.750 L 198.333 235.667 200.814 235.667 C 203.658 235.667,203.741 235.596,203.846 233.099 C 203.972 230.106,202.882 229.908,190.432 230.667 M207.918 230.555 C 207.094 230.655,206.541 230.945,206.295 231.405 C 205.731 232.460,206.076 268.455,206.658 269.156 C 207.131 269.726,210.815 269.879,211.632 269.362 C 212.099 269.066,212.233 256.262,211.788 254.453 C 211.185 252.000,212.484 253.996,213.611 257.254 C 218.422 271.160,217.643 269.884,221.061 269.466 L 223.500 269.167 223.470 267.833 C 223.451 266.993,222.424 263.972,220.692 259.662 L 217.943 252.825 219.768 250.996 C 224.424 246.330,223.602 233.653,218.486 231.201 C 217.150 230.561,210.977 230.184,207.918 230.555 M249.833 231.126 C 245.777 233.039,245.560 233.981,245.527 249.815 C 245.489 267.539,246.290 269.396,254.000 269.472 C 259.232 269.524,262.065 266.542,262.138 260.905 C 262.172 258.200,261.979 258.012,259.150 258.005 C 256.707 257.999,256.333 258.319,256.333 260.422 C 256.333 262.980,255.612 263.986,253.774 263.995 C 251.299 264.007,251.287 263.934,251.403 249.220 L 251.500 236.941 252.287 236.304 C 254.062 234.867,256.333 236.001,256.333 238.325 C 256.333 240.935,256.704 241.333,259.135 241.333 C 262.097 241.333,262.479 240.918,262.231 237.963 C 261.703 231.665,255.705 228.357,249.833 231.126 M276.242 230.750 C 275.795 231.088,272.851 244.984,272.636 247.774 C 272.620 247.990,271.810 244.364,270.836 239.717 C 268.801 229.998,269.118 230.604,266.134 230.734 C 263.065 230.867,263.041 230.265,266.691 244.537 L 269.751 256.500 269.922 262.556 C 270.121 269.585,270.031 269.328,272.338 269.485 C 275.761 269.717,275.591 270.104,275.740 261.769 C 275.869 254.583,275.886 254.437,277.233 249.000 C 281.258 232.759,281.546 231.313,280.848 230.802 C 280.052 230.221,276.989 230.186,276.242 230.750 M121.221 230.890 C 120.629 231.482,121.014 268.651,121.615 268.972 C 122.426 269.406,131.279 269.174,132.499 268.687 C 136.083 267.254,137.335 264.727,137.329 258.938 C 137.324 253.813,136.808 251.681,135.162 249.995 L 133.958 248.762 134.930 247.298 C 138.593 241.779,136.760 232.349,131.769 231.035 C 130.339 230.659,121.573 230.538,121.221 230.890 M140.441 231.199 C 140.326 231.500,140.328 235.740,140.445 240.623 C 140.562 245.505,140.663 253.729,140.668 258.899 C 140.681 270.615,139.877 269.455,147.862 269.275 C 155.621 269.101,155.144 269.452,154.689 264.250 C 154.677 264.112,152.888 264.000,150.715 264.000 L 146.763 264.000 146.551 261.750 C 146.434 260.512,146.337 257.743,146.336 255.596 L 146.333 251.692 149.417 251.596 L 152.500 251.500 152.600 249.197 C 152.722 246.385,152.673 246.345,149.083 246.338 L 146.333 246.333 146.333 241.006 L 146.333 235.679 147.807 235.881 C 148.617 235.992,150.423 235.976,151.821 235.845 L 154.361 235.607 154.264 233.220 L 154.167 230.833 147.409 230.743 C 141.403 230.663,140.628 230.714,140.441 231.199 M230.004 231.490 C 229.832 231.942,229.154 236.030,228.498 240.573 C 227.841 245.116,227.160 249.658,226.982 250.667 C 226.805 251.675,226.523 253.700,226.355 255.167 C 226.187 256.633,225.814 259.106,225.527 260.661 C 224.104 268.353,224.360 269.341,227.772 269.328 C 229.754 269.321,229.943 269.098,230.322 266.319 C 230.509 264.952,230.826 262.821,231.027 261.583 L 231.394 259.333 233.857 259.333 C 236.691 259.333,236.394 258.910,237.009 263.833 C 237.215 265.483,237.536 267.327,237.722 267.930 L 238.061 269.027 240.614 268.930 L 243.167 268.833 243.064 267.167 C 243.007 266.250,242.441 261.750,241.807 257.167 C 241.173 252.583,240.279 245.833,239.821 242.167 C 238.268 229.733,238.744 230.667,233.951 230.667 C 230.393 230.667,230.310 230.684,230.004 231.490 M130.180 236.681 C 130.652 237.203,130.829 238.049,130.937 240.308 C 131.159 244.950,130.407 246.333,127.661 246.333 L 126.699 246.333 126.600 241.166 L 126.500 235.999 128.032 236.000 C 129.150 236.000,129.730 236.184,130.180 236.681 M215.531 236.476 C 216.632 237.247,217.048 239.167,216.936 242.965 C 216.818 246.963,216.392 247.592,213.587 247.908 C 211.718 248.119,211.667 247.934,211.667 240.958 L 211.667 236.000 213.259 236.000 C 214.135 236.000,215.157 236.214,215.531 236.476 M235.174 247.833 C 235.472 250.400,235.796 252.838,235.894 253.250 C 236.064 253.964,235.976 254.000,234.088 254.000 L 232.103 254.000 232.553 250.750 C 232.801 248.963,233.060 246.750,233.129 245.833 C 233.198 244.917,233.460 243.042,233.711 241.667 L 234.167 239.167 234.400 241.167 C 234.528 242.267,234.876 245.267,235.174 247.833 M130.839 252.555 C 131.492 253.551,132.021 259.939,131.589 261.607 C 131.226 263.009,130.210 263.744,128.398 263.918 L 126.789 264.073 126.710 257.870 L 126.631 251.667 128.444 251.667 C 130.040 251.667,130.326 251.773,130.839 252.555 " stroke="none" fill="#000000" fill-rule="evenodd"></path></g></svg>